#!OML:ASF X:\für Bonn\!DataBase\2005_08_12_Daniel\c3d\Daniel.ASF
:FULLY-SPECIFIED
:DEGREES
92
root 10.3605 16.0093 10.5105 717.163 -129.692 -4.13022
lowerback 40.3545 5.61408 -6.12197
upperback 10.2402 1.2891 -5.1905
thorax -8.0444 -0.355627 -2.77244
lowerneck -5.87319 -0.0953101 -7.21825
upperneck 1.9699 0.355529 0.47938
head 1.61808 0.109025 1.40209
rclavicle 4.45278e-014 -1.03368e-013
rhumerus -36.854 -2.21408 -82.446
rradius 81.414
rwrist 10.4791
rhand -34.0437 7.83
rfingers 7.12502
rthumb -7.22177 -22.0268
lclavicle 4.45278e-014 -1.03368e-013
lhumerus 150.228 157.429 256.594
lradius 81.4224
lwrist -26.5007
lhand -30.286 5.45739
lfingers 7.12502
lthumb -3.59366 35.4068
rfemur -2.35655 -5.59481 16.8195
rtibia 72.8068
rfoot -8.79066 2.67179
rtoes -12.1669
lfemur -34.048 -0.66576 -26.0346
ltibia 64.5179
lfoot -23.3144 -7.51195
ltoes -4.43002
93
root 10.2728 16.0232 10.4537 717.019 -129.823 -4.09284
lowerback 40.461 5.54095 -6.13911
upperback 10.2645 1.1745 -5.13966
thorax -8.0526 -0.415829 -2.66409
lowerneck -5.66779 -0.0634966 -7.44086
upperneck 2.03297 0.393788 0.663267
head 1.60233 0.129651 1.5014
rclavicle -3.97569e-014 9.85972e-014
rhumerus -37.0092 -2.03983 -82.5266
rradius 81.8335
rwrist 10.469
rhand -34.0212 7.54297
rfingers 7.12502
rthumb -7.20003 -22.3145
lclavicle -3.97569e-014 9.85972e-014
lhumerus 150.431 157.802 256.991
lradius 81.7994
lwrist -26.3183
lhand -30.1104 5.08137
lfingers 7.12502
lthumb -3.42407 35.0336
rfemur -3.44375 -5.48988 16.7273
rtibia 73.5251
rfoot -9.44562 3.31724
rtoes -11.7316
lfemur -33.4547 -0.546946 -26.0547
ltibia 64.4966
lfoot -23.7371 -7.47426
ltoes -4.51343
94
root 10.1864 16.0392 10.3972 716.88 -129.959 -4.05634
lowerback 40.5504 5.47074 -6.09339
upperback 10.3207 1.07849 -5.14255
thorax -8.01955 -0.469683 -2.65184
lowerneck -5.55623 -0.0580397 -7.48709
upperneck 2.14702 0.39453 0.808541
head 1.62046 0.131189 1.55716
rclavicle 1.82882e-014 -6.99722e-014
rhumerus -37.1533 -1.98382 -82.6883
rradius 82.2178
rwrist 10.3902
rhand -34.0929 7.31236
rfingers 7.12502
rthumb -7.26925 -22.5428
lclavicle 1.82882e-014 -6.99722e-014
lhumerus 150.716 158.316 257.325
lradius 82.1769
lwrist -26.229
lhand -29.7754 4.6381
lfingers 7.12502
lthumb -3.10058 34.5953
rfemur -4.59461 -5.37546 16.6512
rtibia 74.2052
rfoot -10.0214 3.88012
rtoes -11.231
lfemur -32.863 -0.38703 -26.0757
ltibia 64.4398
lfoot -24.1359 -7.43938
ltoes -4.40169
95
root 10.1013 16.0538 10.3393 716.747 -130.069 -4.06794
lowerback 40.6659 5.39436 -6.095
upperback 10.355 0.955768 -5.13594
thorax -8.01908 -0.534606 -2.5953
lowerneck -5.32225 -0.0234489 -7.49477
upperneck 2.15592 0.42024 0.905738
head 1.58099 0.146792 1.58915
rclavicle -6.59965e-014 5.40694e-014
rhumerus -37.3506 -1.91275 -82.8312
rradius 82.6267
rwrist 10.3641
rhand -34.162 7.16159
rfingers 7.12502
rthumb -7.33594 -22.6912
lclavicle -6.59965e-014 5.40694e-014
lhumerus 150.965 158.786 257.65
lradius 82.4968
lwrist -26.0827
lhand -29.4873 4.1359
lfingers 7.12502
lthumb -2.8223 34.097
rfemur -5.71902 -5.27466 16.5666
rtibia 74.8175
rfoot -10.6405 4.3814
rtoes -10.9141
lfemur -32.2239 -0.223127 -26.1246
ltibia 64.3774
lfoot -24.5328 -7.39803
ltoes -4.5651
96
root 10.0172 16.0696 10.2815 716.567 -130.189 -4.00315
lowerback 40.7439 5.31405 -6.0683
upperback 10.4228 0.845449 -5.10601
thorax -7.9694 -0.596582 -2.53184
lowerneck -5.21227 -8.60733e-005 -7.58045
upperneck 2.24384 0.446212 1.04967
head 1.58985 0.16074 1.65213
rclavicle 2.54444e-014 -1.90833e-014
rhumerus -37.4667 -1.82258 -82.9713
rradius 83.0361
rwrist 10.3189
rhand -34.2264 7.15954
rfingers 7.12502
rthumb -7.39808 -22.6911
lclavicle 2.54444e-014 -1.90833e-014
lhumerus 151.266 159.288 257.981
lradius 82.8454
lwrist -26.0472
lhand -29.1845 3.88679
lfingers 7.12502
lthumb -2.52992 33.8515
rfemur -6.90956 -5.18084 16.5502
rtibia 75.3846
rfoot -11.2513 4.8478
rtoes -10.6127
lfemur -31.5898 -0.0449097 -26.1049
ltibia 64.2966
lfoot -24.9313 -7.44634
ltoes -4.51901
97
root 9.9327 16.0826 10.2227 716.333 -130.317 -3.96653
lowerback 40.9071 5.25618 -6.05188
upperback 10.4594 0.74887 -5.06795
thorax -7.98007 -0.651125 -2.46208
lowerneck -5.03428 0.0231018 -7.65025
upperneck 2.35065 0.465424 1.18299
head 1.59285 0.170677 1.70831
rclavicle -3.4191e-014 -1.11319e-014
rhumerus -37.6467 -1.77362 -83.0929
rradius 83.4312
rwrist 10.2898
rhand -34.3305 7.20965
rfingers 7.12502
rthumb -7.49854 -22.6374
lclavicle -3.4191e-014 -1.11319e-014
lhumerus 151.449 159.776 258.303
lradius 83.2031
lwrist -26.0813
lhand -28.8914 3.45214
lfingers 7.12502
lthumb -2.2468 33.4201
rfemur -7.99404 -5.09144 16.4882
rtibia 75.8333
rfoot -11.9818 5.26346
rtoes -10.7484
lfemur -30.8775 0.198361 -26.1111
ltibia 64.2266
lfoot -25.3168 -7.45707
ltoes -4.43488
98
root 9.85013 16.0919 10.1655 716.129 -130.481 -3.90663
lowerback 40.9812 5.18945 -6.02591
upperback 10.5212 0.653657 -5.04465
thorax -7.93533 -0.706228 -2.41141
lowerneck -4.89185 0.0511502 -7.70762
upperneck 2.42694 0.492669 1.30556
head 1.59174 0.185065 1.75905
rclavicle -2.14687e-014 4.29375e-014
rhumerus -37.761 -1.74473 -83.2595
rradius 83.7514
rwrist 10.2318
rhand -34.4567 7.4654
rfingers 7.12502
rthumb -7.62036 -22.3773
lclavicle -2.14687e-014 4.29375e-014
lhumerus 151.689 160.333 258.593
lradius 83.5451
lwrist -26.1061
lhand -28.6724 3.24311
lfingers 7.12502
lthumb -2.03537 33.2131
rfemur -9.13548 -4.97412 16.4575
rtibia 76.2041
rfoot -12.8251 5.71039
rtoes -10.6901
lfemur -30.2383 0.444981 -26.0786
ltibia 64.1745
lfoot -25.7176 -7.50056
ltoes -4.37782
99
root 9.76905 16.0987 10.1087 715.906 -130.596 -3.86875
lowerback 41.1289 5.08871 -5.96571
upperback 10.5781 0.515135 -5.05224
thorax -7.91954 -0.781299 -2.39476
lowerneck -4.88778 0.0856017 -7.66141
upperneck 2.60226 0.535329 1.4333
head 1.6463 0.206569 1.79564
rclavicle -1.03368e-014 4.92986e-014
rhumerus -37.9452 -1.71764 -83.4914
rradius 84.1233
rwrist 10.3049
rhand -34.6584 7.73905
rfingers 7.12502
rthumb -7.81504 -22.0965
lclavicle -1.03368e-014 4.92986e-014
lhumerus 151.975 160.876 258.856
lradius 83.8435
lwrist -26.1499
lhand -28.4059 3.16078
lfingers 7.12502
lthumb -1.77796 33.1331
rfemur -10.2486 -4.84748 16.4343
rtibia 76.4801
rfoot -13.7337 6.12922
rtoes -10.9464
lfemur -29.5809 0.724116 -26.0666
ltibia 64.1346
lfoot -26.1324 -7.58788
ltoes -4.49358
100
root 9.68708 16.1048 10.052 715.719 -130.735 -3.85487
lowerback 41.2092 5.01137 -5.98681
upperback 10.6334 0.389872 -5.01321
thorax -7.88338 -0.850459 -2.29116
lowerneck -4.76747 0.133011 -7.66126
upperneck 2.6995 0.588585 1.47865
head 1.65396 0.232053 1.81181
rclavicle 8.18993e-014 -1.41535e-013
rhumerus -38.0349 -1.5711 -83.686
rradius 84.4135
rwrist 10.2209
rhand -34.8713 8.025
rfingers 7.12502
rthumb -8.02055 -21.8028
lclavicle 8.18993e-014 -1.41535e-013
lhumerus 152.181 161.372 259.149
lradius 84.2031
lwrist -26.2456
lhand -28.1973 3.11371
lfingers 7.12502
lthumb -1.57648 33.0876
rfemur -11.4163 -4.68884 16.3971
rtibia 76.7106
rfoot -14.5158 6.58305
rtoes -11.0016
lfemur -28.9445 1.00208 -26.062
ltibia 64.1003
lfoot -26.5322 -7.69476
ltoes -4.49507
101
root 9.60692 16.1104 9.99492 715.48 -130.852 -3.79144
lowerback 41.3128 4.9055 -5.97175
upperback 10.6933 0.241369 -4.97096
thorax -7.84956 -0.930816 -2.1932
lowerneck -4.70967 0.194503 -7.65165
upperneck 2.82988 0.664454 1.57079
head 1.68258 0.269581 1.84326
rclavicle -4.92986e-014 -5.56597e-014
rhumerus -38.2086 -1.39491 -83.8654
rradius 84.7999
rwrist 10.0633
rhand -35.0198 8.39964
rfingers 7.12502
rthumb -8.16384 -21.4227
lclavicle -4.92986e-014 -5.56597e-014
lhumerus 152.448 161.843 259.414
lradius 84.4677
lwrist -26.3289
lhand -28.0549 3.18974
lfingers 7.12502
lthumb -1.43895 33.1646
rfemur -12.5669 -4.39828 16.4596
rtibia 76.861
rfoot -15.1736 6.91974
rtoes -10.6317
lfemur -28.286 1.25499 -26.0261
ltibia 64.0591
lfoot -26.9182 -7.74662
ltoes -4.4413
102
root 9.52638 16.1169 9.93815 715.218 -130.987 -3.751
lowerback 41.456 4.81696 -5.96398
upperback 10.7724 0.0991373 -4.93201
thorax -7.80557 -1.01203 -2.09804
lowerneck -4.80436 0.242558 -7.57855
upperneck 3.06381 0.734133 1.59537
head 1.77221 0.301004 1.84363
rclavicle -1.01778e-013 -9.54166e-014
rhumerus -38.3333 -1.17647 -84.0561
rradius 85.1684
rwrist 9.95493
rhand -35.3083 8.70177
rfingers 7.12502
rthumb -8.44232 -21.1095
lclavicle -1.01778e-013 -9.54166e-014
lhumerus 152.771 162.284 259.693
lradius 84.7399
lwrist -26.4936
lhand -27.9378 3.29175
lfingers 7.12502
lthumb -1.32584 33.2674
rfemur -13.6581 -4.10065 16.5051
rtibia 76.9338
rfoot -15.8643 7.26209
rtoes -10.4882
lfemur -27.5769 1.46538 -26.0012
ltibia 64.0134
lfoot -27.3284 -7.73816
ltoes -4.48565
103
root 9.44489 16.1242 9.88087 714.998 -131.152 -3.72292
lowerback 41.5559 4.72941 -5.97126
upperback 10.822 -0.0392829 -4.90778
thorax -7.78111 -1.08764 -2.01204
lowerneck -4.70069 0.302252 -7.45837
upperneck 3.14764 0.798712 1.6051
head 1.77731 0.333304 1.82677
rclavicle -8.5875e-014 -1.11319e-014
rhumerus -38.5443 -0.918533 -84.2612
rradius 85.5926
rwrist 9.70697
rhand -35.4436 8.97742
rfingers 7.12502
rthumb -8.57291 -20.8285
lclavicle -8.5875e-014 -1.11319e-014
lhumerus 152.978 162.811 259.898
lradius 85.0468
lwrist -26.4924
lhand -27.9873 3.50634
lfingers 7.12502
lthumb -1.3736 33.4817
rfemur -14.8025 -3.68462 16.58
rtibia 76.941
rfoot -16.4994 7.56778
rtoes -10.3654
lfemur -26.8751 1.69194 -25.976
ltibia 63.9413
lfoot -27.7132 -7.78033
ltoes -4.27043
104
root 9.36504 16.1277 9.82398 714.745 -131.275 -3.67955
lowerback 41.7307 4.61581 -5.93938
upperback 10.8466 -0.199774 -4.88121
thorax -7.80744 -1.17088 -1.93504
lowerneck -4.63474 0.360008 -7.36715
upperneck 3.33221 0.86573 1.63108
head 1.82219 0.364585 1.82209
rclavicle 4.77083e-014 2.8625e-014
rhumerus -38.7543 -0.72187 -84.4706
rradius 85.9552
rwrist 9.569
rhand -35.6474 9.26636
rfingers 7.12502
rthumb -8.7696 -20.5314
lclavicle 4.77083e-014 2.8625e-014
lhumerus 153.169 163.319 260.105
lradius 85.331
lwrist -26.508
lhand -28.07 3.50629
lfingers 7.12502
lthumb -1.4535 33.4811
rfemur -15.8905 -3.32178 16.6622
rtibia 76.8769
rfoot -17.1065 7.89086
rtoes -10.4323
lfemur -26.1731 1.91163 -25.949
ltibia 63.8748
lfoot -28.124 -7.78954
ltoes -4.35733
105
root 9.28491 16.1323 9.76561 714.505 -131.441 -3.6442
lowerback 41.8329 4.51539 -5.97062
upperback 10.9113 -0.367281 -4.85315
thorax -7.7657 -1.26267 -1.82059
lowerneck -4.62941 0.446194 -7.24646
upperneck 3.46449 0.973832 1.64579
head 1.85889 0.417966 1.80967
rclavicle -5.00937e-014 -3.33958e-014
rhumerus -38.9566 -0.481975 -84.7219
rradius 86.449
rwrist 9.38227
rhand -35.7185 9.45657
rfingers 7.12502
rthumb -8.83818 -20.3383
lclavicle -5.00937e-014 -3.33958e-014
lhumerus 153.442 163.739 260.258
lradius 85.5929
lwrist -26.5546
lhand -28.1783 3.6221
lfingers 7.12502
lthumb -1.55811 33.5962
rfemur -17.002 -2.96526 16.7614
rtibia 76.7429
rfoot -17.6697 8.13658
rtoes -10.5135
lfemur -25.4534 2.15246 -25.9075
ltibia 63.7894
lfoot -28.5373 -7.81924
ltoes -4.43057
